<svg xmlns="http://www.w3.org/2000/svg" xmlns:xlink="http://www.w3.org/1999/xlink" version="1.1" x="0px" y="0px" viewBox="0 0 90 90" enable-background="new 0 0 90 90" xml:space="preserve"><g><path d="M45.744,4.648c-14.363,0-26.006,9.708-26.006,26.622c0,12.626,6.792,19.35,12.416,28.051h27.179   c5.624-8.701,12.417-15.424,12.417-28.051C71.749,14.356,60.106,4.648,45.744,4.648z M58.861,51.904   c-0.651,0.926-1.315,1.873-1.978,2.844h-2.119l-0.799-16.89l-0.798,16.89H36.856L36.119,39.14c0.499-0.435,0.979-0.886,1.457-1.338   c0.309-0.302,0.617-0.602,0.924-0.906c0.101,0.276,0.202,0.553,0.311,0.827l0.582,1.489c0.188,0.5,0.405,0.985,0.607,1.478   l0.616,1.474l0.448,1.07l0.868-0.823c0.833-0.791,1.674-1.572,2.501-2.37c0.656-0.642,1.307-1.287,1.949-1.942   c0.59,0.466,1.18,0.935,1.787,1.38l1.201,0.899l1.223,0.875l0.42,0.302l0.237-0.375c0.339-0.537,0.661-1.087,0.989-1.632   c0.319-0.553,0.639-1.105,0.934-1.674c-0.466,0.441-0.909,0.899-1.352,1.359c-0.317,0.338-0.633,0.679-0.946,1.021l-0.758-0.756   l-1.084-1.038c-0.718-0.699-1.468-1.359-2.204-2.035l-0.508-0.467l-0.561,0.501c-0.855,0.767-1.688,1.559-2.517,2.352   c-0.557,0.54-1.106,1.087-1.656,1.633l-0.198-0.393c-0.244-0.474-0.471-0.954-0.728-1.421l-0.751-1.412   c-0.248-0.471-0.519-0.932-0.778-1.398l-0.385-0.696l-0.424,0.589c-0.406,0.565-0.788,1.151-1.18,1.729   c-0.35,0.539-0.697,1.08-1.027,1.635l-0.058-1.217l-0.798,16.89h-0.657c-0.663-0.971-1.327-1.918-1.977-2.844   c-4.462-6.357-8.315-11.847-8.315-20.635c0-6.778,2.151-12.436,6.22-16.363c3.8-3.667,9.203-5.687,15.214-5.687   c6.01,0,11.413,2.019,15.213,5.687c4.069,3.927,6.22,9.584,6.22,16.363C67.177,40.057,63.323,45.547,58.861,51.904z"></path><path d="M34.078,64.539c0.479,2.018,1.994,2.453,2.313,4.641c0.183,1.256-0.393,2.055-0.182,4.002   c0.09,0.828,1.684,2.961,1.754,3.643c0.191,1.846,0,3.215,0,3.215c0.048,1.707,2.899,2.598,4.023,3.027   c0.951,0.365,1.912,2.287,3.693,2.287c1.812,0,2.84-1.924,3.822-2.287c1.13-0.416,3.607-1.455,3.988-3.104   c0.167-0.721,0.079-1.283,0.263-3.066c0.079-0.773,1.594-2.814,1.732-3.775c0.412-2.852-0.548-2.619-0.232-4.514   c0.229-1.369,1.779-2.434,2.07-3.699c0.251-1.1,0.526-2.121,0.826-3.016H33.336C33.602,62.688,33.849,63.58,34.078,64.539z"></path></g></svg>