<svg data-v-423bf9ae="" xmlns="http://www.w3.org/2000/svg" viewBox="0 0 599 90" class="iconLeft"><!----><!----><!----><g data-v-423bf9ae="" id="d6935c0e-b325-4984-b4a1-e1bba671a3c3" fill="#1F321D" transform="matrix(4.535147549208299,0,0,4.535147549208299,73.55720687347383,14.047617993345401)"><path d="M3.22 10.50L3.22 0.42L0.98 0.42L0.98 10.50ZM7.07 10.50L7.07 0.21L4.97 0.77L4.97 10.50ZM10.71 10.50L10.71 0.21L8.61 0.77L8.61 10.50ZM16.80 3.22L16.80 7.18C16.80 8.36 16.20 8.95 15.47 8.95C14.66 8.95 14.35 8.47 14.35 7.63L14.35 3.22L12.25 3.22L12.25 7.69C12.25 9.42 12.88 10.71 14.90 10.71C15.76 10.71 16.39 10.35 16.93 9.45L16.93 10.50L18.90 10.50L18.90 3.22ZM22.54 10.50L22.54 6.73C22.54 5.54 22.97 4.77 23.77 4.77C24.28 4.77 24.64 5.11 24.64 6.06L24.64 10.50L26.74 10.50L26.74 6.43C26.74 5.38 27.24 4.77 27.96 4.77C28.62 4.77 28.83 5.31 28.83 6.06L28.83 10.50L30.93 10.50L30.93 5.52C30.93 3.89 30.00 3.01 28.64 3.01C27.73 3.01 27.01 3.39 26.54 4.35C26.25 3.50 25.54 3.01 24.47 3.01C23.51 3.01 22.92 3.36 22.41 4.26L22.41 3.22L20.44 3.22L20.44 10.50ZM34.57 2.32L34.57 0.42L32.47 0.42L32.47 2.32ZM34.57 10.50L34.57 3.22L32.47 3.22L32.47 10.50ZM38.21 10.50L38.21 6.54C38.21 5.36 38.81 4.77 39.54 4.77C40.35 4.77 40.66 5.25 40.66 6.09L40.66 10.50L42.76 10.50L42.76 6.03C42.76 4.30 42.13 3.01 40.11 3.01C39.24 3.01 38.61 3.37 38.08 4.27L38.08 3.22L36.11 3.22L36.11 10.50ZM48.45 9.74C48.48 9.98 48.57 10.32 48.78 10.50L50.89 10.50C50.64 10.23 50.47 9.76 50.47 9.02L50.47 6.10C50.47 3.85 49.18 3.01 47.32 3.01C45.96 3.01 44.53 3.53 44.17 5.21L45.95 5.80C46.09 5.26 46.41 4.72 47.22 4.72C48.10 4.72 48.37 5.31 48.37 5.78L48.37 5.95C48.01 6.12 47.56 6.20 46.80 6.29C45.04 6.50 43.95 7.08 43.95 8.65C43.95 10.00 45.05 10.71 46.37 10.71C47.24 10.71 47.85 10.47 48.45 9.74ZM48.37 8.19C48.13 8.68 47.52 9.14 46.86 9.14C46.26 9.14 46.06 8.83 46.05 8.51C46.02 7.94 46.44 7.70 47.08 7.57C47.78 7.43 48.12 7.31 48.37 7.21ZM55.96 8.74C55.73 8.81 55.52 8.82 55.38 8.82C54.73 8.82 54.73 8.37 54.73 7.74L54.73 4.89L56.11 4.89L56.11 3.22L54.73 3.22L54.73 1.12L52.63 1.72L52.63 3.22L51.59 3.22L51.59 4.89L52.63 4.89L52.63 8.37C52.63 9.80 53.23 10.64 54.75 10.64C55.02 10.64 55.80 10.56 56.08 10.40ZM63.98 7.46C63.98 7.43 63.99 7 63.99 6.57C63.99 4.13 62.33 3.01 60.49 3.01C58.63 3.01 56.88 4.17 56.88 6.86C56.88 9.55 58.62 10.71 60.49 10.71C62.24 10.71 63.32 9.97 63.87 8.53L61.91 8.12C61.74 8.58 61.31 8.96 60.63 8.96C59.70 8.96 59.04 8.47 58.98 7.46ZM60.44 4.76C61.25 4.76 61.81 5.26 61.87 6.03L59.01 6.03C59.09 5.24 59.74 4.76 60.44 4.76ZM71.40 10.50L71.40 4.12L75.75 10.50L78.02 10.50L78.02 0.42L75.84 0.42L75.84 6.80L71.48 0.42L69.22 0.42L69.22 10.50ZM81.87 2.32L81.87 0.42L79.77 0.42L79.77 2.32ZM81.87 10.50L81.87 3.22L79.77 3.22L79.77 10.50ZM89.99 10.22L89.99 3.22L88.03 3.22L88.03 4.07C87.61 3.37 86.95 3.01 86.13 3.01C84.39 3.01 82.99 4.24 82.99 6.79C82.99 9.34 84.46 10.57 86.20 10.57C86.79 10.57 87.47 10.42 87.89 9.87L87.89 10.25C87.89 11.19 87.46 11.82 86.41 11.82C85.68 11.82 85.27 11.61 85.16 11.14L83.13 10.96C83.13 12.70 84.90 13.44 86.41 13.44C88.97 13.44 89.99 12.03 89.99 10.22ZM88.05 6.79C88.05 8.22 87.47 8.82 86.58 8.82C85.68 8.82 85.09 8.22 85.09 6.79C85.09 5.36 85.74 4.76 86.56 4.76C87.39 4.76 88.05 5.36 88.05 6.79ZM98.21 7.46C98.21 7.43 98.22 7 98.22 6.57C98.22 4.13 96.56 3.01 94.72 3.01C92.86 3.01 91.11 4.17 91.11 6.86C91.11 9.55 92.85 10.71 94.72 10.71C96.47 10.71 97.55 9.97 98.10 8.53L96.14 8.12C95.97 8.58 95.54 8.96 94.86 8.96C93.93 8.96 93.27 8.47 93.21 7.46ZM94.67 4.76C95.48 4.76 96.04 5.26 96.10 6.03L93.24 6.03C93.32 5.24 93.97 4.76 94.67 4.76ZM101.44 10.50L101.44 7.27C101.44 5.85 102.05 4.97 103.25 4.97C103.68 4.97 104.01 5.11 104.29 5.25L104.59 3.37C104.26 3.11 103.87 3.01 103.31 3.01C102.26 3.01 101.78 3.50 101.32 4.48L101.32 3.22L99.34 3.22L99.34 10.50ZM107.60 2.32L107.60 0.42L105.50 0.42L105.50 2.32ZM107.60 10.50L107.60 3.22L105.50 3.22L105.50 10.50ZM113.30 9.74C113.33 9.98 113.41 10.32 113.62 10.50L115.74 10.50C115.49 10.23 115.32 9.76 115.32 9.02L115.32 6.10C115.32 3.85 114.03 3.01 112.17 3.01C110.81 3.01 109.38 3.53 109.02 5.21L110.80 5.80C110.94 5.26 111.26 4.72 112.07 4.72C112.95 4.72 113.22 5.31 113.22 5.78L113.22 5.95C112.85 6.12 112.41 6.20 111.65 6.29C109.89 6.50 108.79 7.08 108.79 8.65C108.79 10.00 109.90 10.71 111.22 10.71C112.08 10.71 112.70 10.47 113.30 9.74ZM113.22 8.19C112.98 8.68 112.36 9.14 111.71 9.14C111.10 9.14 110.91 8.83 110.89 8.51C110.87 7.94 111.29 7.70 111.93 7.57C112.63 7.43 112.97 7.31 113.22 7.21Z"></path></g><defs data-v-423bf9ae=""><linearGradient data-v-423bf9ae="" gradientTransform="rotate(25)" id="2621dc6d-aaf6-446c-9d4f-850c288ac780" x1="0%" y1="0%" x2="100%" y2="0%"><stop data-v-423bf9ae="" offset="0%" style="stop-color: rgb(0, 238, 225); stop-opacity: 1;"></stop><stop data-v-423bf9ae="" offset="100%" style="stop-color: rgb(255, 210, 51); stop-opacity: 1;"></stop></linearGradient></defs><g data-v-423bf9ae="" id="5990d703-bcf7-4b26-a315-c3a38be88272" transform="matrix(1.1151588119674474,0,0,1.1151588119674474,-21.273825153693487,-4.535258020964342)" stroke="none" fill="url(#2621dc6d-aaf6-446c-9d4f-850c288ac780)"><path d="M45.744 4.648c-14.363 0-26.006 9.708-26.006 26.622 0 12.626 6.792 19.35 12.416 28.051h27.179C64.957 50.62 71.75 43.897 71.75 31.27 71.749 14.356 60.106 4.648 45.744 4.648zm13.117 47.256c-.651.926-1.315 1.873-1.978 2.844h-2.119l-.799-16.89-.798 16.89H36.856l-.737-15.608c.499-.435.979-.886 1.457-1.338.309-.302.617-.602.924-.906.101.276.202.553.311.827l.582 1.489c.188.5.405.985.607 1.478l.616 1.474.448 1.07.868-.823c.833-.791 1.674-1.572 2.501-2.37a132.18 132.18 0 0 0 1.949-1.942c.59.466 1.18.935 1.787 1.38l1.201.899 1.223.875.42.302.237-.375c.339-.537.661-1.087.989-1.632.319-.553.639-1.105.934-1.674-.466.441-.909.899-1.352 1.359-.317.338-.633.679-.946 1.021l-.758-.756-1.084-1.038c-.718-.699-1.468-1.359-2.204-2.035l-.508-.467-.561.501a107.65 107.65 0 0 0-2.517 2.352c-.557.54-1.106 1.087-1.656 1.633l-.198-.393c-.244-.474-.471-.954-.728-1.421l-.751-1.412c-.248-.471-.519-.932-.778-1.398l-.385-.696-.424.589c-.406.565-.788 1.151-1.18 1.729-.35.539-.697 1.08-1.027 1.635l-.058-1.217-.798 16.89h-.657a266.379 266.379 0 0 0-1.977-2.844c-4.462-6.357-8.315-11.847-8.315-20.635 0-6.778 2.151-12.436 6.22-16.363 3.8-3.667 9.203-5.687 15.214-5.687 6.01 0 11.413 2.019 15.213 5.687 4.069 3.927 6.22 9.584 6.22 16.363-.001 8.786-3.855 14.276-8.317 20.633zM34.078 64.539c.479 2.018 1.994 2.453 2.313 4.641.183 1.256-.393 2.055-.182 4.002.09.828 1.684 2.961 1.754 3.643.191 1.846 0 3.215 0 3.215.048 1.707 2.899 2.598 4.023 3.027.951.365 1.912 2.287 3.693 2.287 1.812 0 2.84-1.924 3.822-2.287 1.13-.416 3.607-1.455 3.988-3.104.167-.721.079-1.283.263-3.066.079-.773 1.594-2.814 1.732-3.775.412-2.852-.548-2.619-.232-4.514.229-1.369 1.779-2.434 2.07-3.699.251-1.1.526-2.121.826-3.016H33.336c.266.795.513 1.687.742 2.646z"></path></g><!----></svg>