<?xml version="1.0" standalone="no"?>
<!DOCTYPE svg PUBLIC "-//W3C//DTD SVG 20010904//EN"
 "http://www.w3.org/TR/2001/REC-SVG-20010904/DTD/svg10.dtd">
<svg version="1.0" xmlns="http://www.w3.org/2000/svg"
 width="700.000000pt" height="700.000000pt" viewBox="0 0 700.000000 700.000000"
 preserveAspectRatio="xMidYMid meet">
<metadata>
Created by potrace 1.14, written by Peter Selinger 2001-2017
</metadata>
<g transform="translate(0.000000,700.000000) scale(0.100000,-0.100000)"
fill="#000000" stroke="none">
<path d="M3418 6636 c-1 -2 -39 -6 -83 -9 -323 -25 -678 -146 -950 -325 -491
-323 -796 -879 -842 -1537 -11 -157 -5 -428 11 -510 2 -11 7 -42 10 -70 18
-135 73 -336 133 -490 98 -251 242 -497 538 -920 46 -66 124 -178 172 -250 48
-71 91 -132 94 -135 4 -3 481 -5 1060 -5 l1052 1 16 24 c9 13 120 174 246 357
286 414 405 609 500 823 96 218 161 456 189 695 24 204 15 542 -19 715 -3 14
-9 50 -15 80 -13 74 -63 247 -96 334 -139 367 -399 692 -721 900 -91 58 -203
118 -283 150 -36 15 -74 31 -85 36 -80 37 -304 93 -461 116 -93 13 -455 29
-466 20z m307 -361 c44 -4 89 -8 100 -10 85 -12 122 -20 206 -41 742 -185
1187 -795 1192 -1639 1 -100 -10 -294 -18 -318 -4 -11 -12 -56 -21 -117 -2
-14 -17 -72 -33 -130 -86 -304 -203 -522 -548 -1022 l-178 -257 -82 0 -83 0
-1 32 c-1 18 -2 52 -4 77 -1 25 -5 110 -9 190 -4 80 -9 177 -11 215 -3 39 -7
126 -10 195 -5 131 -13 297 -20 439 -6 104 -15 118 -16 25 -1 -38 -2 -87 -4
-109 -1 -22 -5 -114 -9 -205 -4 -91 -9 -196 -11 -235 -5 -89 -24 -479 -29
-595 l-1 -25 -632 -1 c-467 -1 -633 1 -634 10 -5 52 -8 91 -13 226 -4 85 -9
191 -11 235 -2 44 -7 134 -10 200 -3 66 -8 156 -10 200 -2 44 -7 138 -10 209
l-7 128 93 87 93 88 77 -191 c42 -105 87 -215 100 -245 l24 -53 104 98 c57 55
149 143 204 197 55 54 105 96 111 94 6 -3 87 -62 180 -132 l170 -127 17 24
c18 23 140 232 148 252 2 6 -36 -30 -85 -81 l-89 -92 -116 112 c-187 181 -230
217 -248 207 -20 -11 -69 -57 -229 -211 -67 -66 -125 -119 -127 -119 -3 0 -23
37 -46 83 -66 131 -170 317 -177 317 -4 0 -32 -37 -62 -83 -30 -45 -57 -84
-60 -87 -4 -3 -22 -31 -40 -62 -23 -38 -37 -53 -42 -45 -4 7 -8 -5 -9 -28 0
-22 -2 -65 -4 -95 -3 -70 -16 -340 -21 -445 -1 -44 -5 -123 -8 -175 -3 -52 -8
-160 -12 -240 -5 -130 -11 -232 -13 -252 -1 -5 -12 -8 -25 -8 -19 0 -53 43
-195 248 -185 267 -291 427 -291 441 0 5 -3 11 -7 13 -26 11 -180 336 -227
479 -78 234 -101 384 -100 654 1 336 46 557 166 825 199 440 629 759 1143 850
39 7 79 14 90 17 11 2 74 6 140 9 66 4 121 7 122 8 3 2 90 -2 168 -9z"/>
<path d="M2630 2056 c39 -140 48 -160 111 -246 73 -100 84 -133 82 -240 -1
-52 -4 -131 -6 -174 -5 -95 -1 -109 77 -251 l61 -110 1 -145 c0 -163 7 -187
69 -234 39 -30 183 -100 227 -111 15 -4 61 -38 102 -76 87 -79 118 -97 179
-104 74 -9 143 25 249 125 14 14 41 32 60 41 18 9 67 33 109 53 138 68 200
134 213 231 3 22 8 81 12 130 3 50 11 96 16 103 6 6 7 12 3 12 -4 0 -3 6 2 13
6 6 33 56 62 110 64 122 80 221 51 326 -29 110 -19 177 42 266 23 33 54 78 69
100 22 33 86 236 92 295 2 13 -111 15 -958 16 l-961 0 36 -130z"/>
</g>
</svg>
