<?xml version="1.0" standalone="no"?>
<!DOCTYPE svg PUBLIC "-//W3C//DTD SVG 20010904//EN"
 "http://www.w3.org/TR/2001/REC-SVG-20010904/DTD/svg10.dtd">
<svg version="1.0" xmlns="http://www.w3.org/2000/svg"
 width="700.000000pt" height="700.000000pt" viewBox="0 0 700.000000 700.000000"
 preserveAspectRatio="xMidYMid meet">
<metadata>
Created by potrace 1.14, written by Peter Selinger 2001-2017
</metadata>
<g transform="translate(0.000000,700.000000) scale(0.100000,-0.100000)"
fill="#000000" stroke="none">
<path d="M3270 6424 c-644 -87 -1145 -437 -1409 -984 -136 -281 -201 -585
-201 -935 0 -439 108 -819 349 -1222 65 -110 124 -199 439 -658 l113 -165 992
0 992 0 228 330 c255 369 361 538 447 715 146 303 214 574 227 910 18 470 -93
896 -324 1245 -102 154 -301 354 -457 458 -254 171 -551 276 -881 312 -126 14
-390 11 -515 -6z m602 -343 c636 -110 1085 -550 1207 -1184 86 -443 27 -873
-173 -1271 -88 -174 -162 -293 -374 -598 l-165 -238 -78 0 -79 0 0 33 c0 17
-11 259 -25 537 -14 278 -25 529 -25 559 0 30 -2 52 -4 50 -3 -3 -17 -269 -32
-592 l-28 -587 -593 0 -593 0 -4 23 c-2 12 -14 243 -25 512 -12 270 -24 515
-27 545 l-5 55 89 81 88 82 73 -182 c40 -99 83 -203 94 -229 l22 -49 193 188
193 187 77 -60 c42 -33 118 -90 169 -126 l92 -67 64 108 c95 159 95 164 7 74
l-80 -84 -143 133 c-78 73 -153 143 -167 156 l-26 22 -169 -159 c-94 -88 -172
-160 -175 -160 -3 0 -29 46 -57 103 -28 56 -73 142 -101 191 l-50 88 -93 -140
c-52 -77 -96 -137 -99 -132 -3 5 -16 -216 -29 -493 -31 -690 -29 -667 -57
-667 -19 0 -53 44 -186 235 -223 322 -287 424 -378 610 -80 163 -112 247 -150
390 -108 415 -62 930 117 1285 69 136 135 231 237 338 244 255 566 407 957
451 124 14 375 5 511 -18z"/>
<path d="M2653 2257 c3 -8 19 -65 36 -128 27 -98 40 -126 92 -202 88 -129 92
-142 83 -333 l-7 -161 67 -125 66 -125 0 -135 c0 -124 2 -138 23 -169 31 -46
87 -82 195 -125 74 -30 106 -50 164 -102 80 -72 118 -92 180 -92 55 0 109 27
185 94 38 33 101 73 165 104 115 55 177 103 202 157 11 22 21 81 26 156 l10
119 62 121 c57 110 63 127 66 194 3 45 -2 101 -12 145 -27 116 -17 148 86 297
40 57 53 88 81 196 l34 127 -905 0 c-751 0 -903 -2 -899 -13z"/>
</g>
</svg>
